 http://www.imdb.com/title/tt0090967/

Source: Down.by.Law.1986.720p.BluRay.X264-AMIABLE Thanks!

Subs: Brazilian, Dutch, English, French, Greek, Portuguese and Spanish.

Sample and Screens included.

General
Complete name                            : Down by Law-720p MP4 AAC x264 BRRip 1986-CC.mp4
Format                                   : MPEG-4
Format profile                           : Base Media
Codec ID                                 : isom
File size                                : 2.65 GiB
Duration                                 : 1h 46mn
Overall bit rate mode                    : Variable
Overall bit rate                         : 3 546 Kbps
Encoded date                             : UTC 2012-10-03 12:57:42

Video
ID                                       : 1
Format                                   : AVC
Format/Info                              : Advanced Video Codec
Format profile                           : High@L3.1
Format settings, CABAC                   : Yes
Format settings, ReFrames                : 5 frames
Codec ID                                 : avc1
Codec ID/Info                            : Advanced Video Coding
Duration                                 : 1h 46mn
Bit rate                                 : 3 430 Kbps
Maximum bit rate                         : 17.3 Mbps
Width                                    : 1 280 pixels
Height                                   : 720 pixels
Display aspect ratio                     : 16:9
Frame rate mode                          : Variable
Frame rate                               : 23.976 fps
Minimum frame rate                       : 19.048 fps
Maximum frame rate                       : 25.000 fps
Color space                              : YUV
Chroma subsampling                       : 4:2:0
Bit depth                                : 8 bits
Scan type                                : Progressive
Bits/(Pixel*Frame)                       : 0.155
Stream size                              : 2.53 GiB (95%)
Writing library                          : x264 core 112

Audio
ID                                       : 2
Format                                   : AAC
Format/Info                              : Advanced Audio Codec
Format profile                           : LC
Codec ID                                 : 40
Duration                                 : 1h 46mn
Bit rate mode                            : Variable
Bit rate                                 : 157 Kbps
Maximum bit rate                         : 206 Kbps
Channel(s)                               : 1 channel
Channel positions                        : Front: C
Sampling rate                            : 48.0 KHz
Compression mode                         : Lossy
Delay relative to video                  : 83ms
Stream size                              : 120 MiB (4%)
Language                                 : English

Enjoy...

Requested by edodeniro.

Thanks to hexrider2 for the advise.

Coming soon: The Dark Knight, Taking of Pelham 123, Cast Away and more...